<svg id="svg" version="1.1" xmlns="http://www.w3.org/2000/svg" xmlns:xlink="http://www.w3.org/1999/xlink" width="400" height="400" viewBox="0, 0, 400,400"><g id="svgg">
    <path id="path0" d="M131.706 17.078 C 108.054 19.975,90.773 36.427,85.151 61.400 C 84.707 63.375,84.575 85.118,84.406 184.200 L 84.200 304.600 58.800 304.800 C 30.379 305.024,32.327 304.812,29.463 307.983 C 27.486 310.172,27.104 311.758,26.906 318.613 C 26.235 341.765,42.180 359.533,65.842 362.002 C 74.011 362.854,286.205 362.495,289.800 361.623 C 295.219 360.308,295.706 360.158,298.895 358.824 C 313.725 352.621,324.849 339.076,328.150 323.200 C 328.976 319.228,329.731 311.444,329.394 310.381 C 329.103 309.465,328.815 125.317,329.104 124.509 C 329.235 124.140,331.383 124.029,337.739 124.062 C 361.066 124.182,378.972 113.216,388.439 93.013 C 390.113 89.441,390.391 88.682,391.448 84.800 C 399.129 56.586,381.384 24.961,354.400 18.776 C 353.630 18.600,351.830 18.145,350.400 17.766 C 347.405 16.973,334.696 16.878,207.506 16.700 C 153.637 16.625,134.634 16.720,131.706 17.078 M323.548 35.415 C 323.657 35.524,323.358 36.105,322.883 36.707 C 318.318 42.485,314.884 48.708,313.117 54.400 C 312.536 56.270,311.826 58.520,311.538 59.400 C 311.114 60.699,310.976 85.278,310.808 190.000 L 310.600 319.000 309.469 322.200 C 305.541 333.317,297.455 340.907,286.880 343.406 C 283.094 344.301,272.815 344.080,270.000 343.044 C 256.984 338.253,249.006 328.316,247.968 315.601 C 247.518 310.097,246.583 308.166,243.421 306.211 L 241.463 305.000 172.231 304.800 L 103.000 304.600 103.000 185.400 C 103.000 59.688,102.927 65.156,104.674 59.600 C 108.622 47.035,119.854 37.416,132.859 35.460 C 135.918 35.000,323.089 34.955,323.548 35.415 M355.600 38.922 C 371.455 47.009,378.386 64.356,372.961 82.373 C 371.405 87.544,364.400 97.200,362.205 97.200 C 361.117 97.200,356.742 92.722,355.604 90.445 C 352.753 84.736,352.936 79.135,356.197 72.319 C 358.587 67.322,358.447 64.002,355.711 60.805 C 353.136 57.796,351.778 57.450,341.605 57.211 C 331.252 56.968,331.441 57.057,333.709 53.520 C 340.478 42.966,350.468 36.304,355.600 38.922 M23.402 41.095 C 20.474 41.835,18.937 43.744,18.003 47.800 L 17.359 50.600 15.090 50.884 C 5.214 52.122,5.669 64.331,15.644 65.767 L 17.488 66.032 17.962 68.902 C 19.663 79.205,32.723 77.988,32.790 67.520 L 32.800 66.040 35.100 65.778 C 45.181 64.633,45.655 51.911,35.655 50.906 C 33.232 50.663,32.817 50.356,32.804 48.800 C 32.761 43.704,28.121 39.901,23.402 41.095 M335.268 81.800 C 335.695 91.360,337.185 96.284,341.637 102.851 C 342.477 104.090,343.052 105.215,342.915 105.351 C 342.425 105.842,329.664 105.628,329.353 105.124 C 328.981 104.522,329.019 76.616,329.393 76.012 C 329.564 75.735,330.680 75.610,332.334 75.683 L 335.000 75.800 335.268 81.800 M60.585 89.437 C 56.827 90.771,54.400 94.189,54.400 98.147 C 54.400 109.205,70.005 110.659,72.429 99.827 C 73.886 93.318,66.904 87.193,60.585 89.437 M150.584 114.426 C 143.358 116.527,142.346 126.900,148.969 130.986 L 150.937 132.200 202.769 132.200 L 254.600 132.200 256.428 131.125 C 263.217 127.134,262.289 116.667,254.954 114.489 C 252.976 113.902,152.595 113.841,150.584 114.426 M16.372 143.742 C 6.330 146.963,8.041 161.600,18.460 161.600 C 29.322 161.600,31.339 146.892,20.907 143.752 C 18.795 143.116,18.325 143.115,16.372 143.742 M208.397 144.774 C 200.707 147.113,199.308 156.866,206.013 161.393 L 207.800 162.600 242.600 162.600 C 274.373 162.600,277.522 162.542,278.800 161.928 C 286.089 158.428,285.342 147.434,277.640 144.855 C 276.075 144.331,210.108 144.253,208.397 144.774 M136.298 149.979 C 129.653 154.193,130.969 164.125,138.495 166.555 C 141.414 167.498,181.697 167.527,184.451 166.589 C 190.985 164.363,193.149 156.836,188.707 151.789 C 185.962 148.670,187.154 148.800,161.229 148.800 L 138.157 148.800 136.298 149.979 M44.662 182.168 C 41.684 183.260,40.053 185.602,39.625 189.400 L 39.400 191.400 36.840 191.715 C 26.488 192.991,28.301 206.800,38.820 206.800 C 39.479 206.800,39.600 207.082,39.600 208.613 C 39.600 218.983,53.408 219.655,54.588 209.342 L 54.869 206.884 56.999 206.617 C 67.058 205.361,67.509 192.941,57.540 191.713 L 55.000 191.400 54.543 188.800 C 54.292 187.370,54.067 186.079,54.043 185.931 C 53.611 183.232,47.951 180.962,44.662 182.168 M145.200 187.837 C 137.459 191.184,137.987 202.173,146.024 205.008 C 148.233 205.788,236.972 205.910,239.240 205.137 C 247.073 202.467,248.224 192.710,241.203 188.500 L 239.035 187.200 192.818 187.216 C 152.457 187.229,146.423 187.308,145.200 187.837 M216.339 258.352 C 209.824 262.484,210.764 272.489,217.889 274.859 C 219.973 275.552,262.717 275.849,266.200 275.194 C 274.741 273.589,276.951 263.220,269.766 258.460 L 267.863 257.200 243.010 257.200 L 218.157 257.200 216.339 258.352 M347.346 278.358 C 343.701 279.294,340.800 283.213,340.800 287.200 C 340.800 296.411,352.915 299.706,357.789 291.821 C 362.031 284.960,355.321 276.310,347.346 278.358 M366.392 318.532 C 363.548 319.851,362.011 322.116,361.644 325.527 L 361.400 327.800 358.916 328.038 C 349.127 328.974,349.373 341.733,359.200 342.768 L 361.400 343.000 361.634 345.400 C 362.624 355.578,376.011 355.845,376.445 345.695 C 376.551 343.215,376.934 342.800,379.123 342.800 C 385.556 342.800,389.067 335.256,384.847 330.499 C 383.409 328.878,381.365 328.000,379.027 328.000 C 376.922 328.000,376.400 327.366,376.400 324.806 C 376.400 320.101,370.706 316.532,366.392 318.532 M230.171 323.829 C 230.517 324.174,230.800 324.710,230.800 325.020 C 230.800 327.314,234.706 336.096,237.732 340.606 C 239.068 342.599,239.445 343.451,239.091 343.678 C 238.361 344.144,69.693 344.067,66.392 343.599 C 56.234 342.158,48.721 335.688,45.837 325.898 C 45.333 324.185,45.343 323.958,45.939 323.610 C 47.213 322.866,229.425 323.082,230.171 323.829 M330.236 359.029 C 322.507 361.861,321.978 372.469,329.393 375.955 C 338.516 380.243,346.827 368.398,339.683 361.291 C 337.125 358.746,333.426 357.861,330.236 359.029 " stroke="none" fill="#070707" fill-rule="evenodd"></path>
    <path id="path1" d="M0.000 200.000 L 0.000 400.000 200.000 400.000 L 400.000 400.000 400.000 200.000 L 400.000 0.000 200.000 0.000 L 0.000 0.000 0.000 200.000 M313.600 16.939 C 344.410 17.064,348.058 17.146,350.400 17.766 C 351.830 18.145,353.630 18.600,354.400 18.776 C 361.835 20.481,371.124 25.956,377.577 32.438 C 392.199 47.126,396.864 67.328,390.466 88.252 C 386.861 100.044,374.811 113.581,363.200 118.884 C 354.028 123.074,348.886 124.119,337.739 124.062 C 331.383 124.029,329.235 124.140,329.104 124.509 C 328.815 125.317,329.103 309.465,329.394 310.381 C 329.731 311.444,328.976 319.228,328.150 323.200 C 324.849 339.076,313.725 352.621,298.895 358.824 C 295.706 360.158,295.219 360.308,289.800 361.623 C 286.205 362.495,74.011 362.854,65.842 362.002 C 42.180 359.533,26.235 341.765,26.906 318.613 C 27.104 311.758,27.486 310.172,29.463 307.983 C 32.327 304.812,30.379 305.024,58.800 304.800 L 84.200 304.600 84.406 184.200 C 84.575 85.118,84.707 63.375,85.151 61.400 C 90.773 36.427,108.054 19.975,131.706 17.078 C 135.519 16.611,217.142 16.549,313.600 16.939 M132.859 35.460 C 119.854 37.416,108.622 47.035,104.674 59.600 C 102.927 65.156,103.000 59.688,103.000 185.400 L 103.000 304.600 172.231 304.800 L 241.463 305.000 243.421 306.211 C 246.583 308.166,247.518 310.097,247.968 315.601 C 249.006 328.316,256.984 338.253,270.000 343.044 C 272.815 344.080,283.094 344.301,286.880 343.406 C 297.455 340.907,305.541 333.317,309.469 322.200 L 310.600 319.000 310.808 190.000 C 310.976 85.278,311.114 60.699,311.538 59.400 C 311.826 58.520,312.536 56.270,313.117 54.400 C 314.884 48.708,318.318 42.485,322.883 36.707 C 323.358 36.105,323.657 35.524,323.548 35.415 C 323.089 34.955,135.918 35.000,132.859 35.460 M348.888 39.385 C 342.988 42.212,337.956 46.898,333.709 53.520 C 331.441 57.057,331.252 56.968,341.605 57.211 C 351.778 57.450,353.136 57.796,355.711 60.805 C 358.447 64.002,358.587 67.322,356.197 72.319 C 352.936 79.135,352.753 84.736,355.604 90.445 C 356.742 92.722,361.117 97.200,362.205 97.200 C 364.400 97.200,371.405 87.544,372.961 82.373 C 378.386 64.356,371.455 47.009,355.600 38.922 C 353.192 37.693,352.288 37.755,348.888 39.385 M28.217 41.552 C 30.939 42.789,32.778 45.694,32.804 48.800 C 32.817 50.356,33.232 50.663,35.655 50.906 C 45.655 51.911,45.181 64.633,35.100 65.778 L 32.800 66.040 32.790 67.520 C 32.723 77.988,19.663 79.205,17.962 68.902 L 17.488 66.032 15.644 65.767 C 5.669 64.331,5.214 52.122,15.090 50.884 L 17.359 50.600 18.003 47.800 C 18.864 44.058,19.031 43.755,20.950 42.434 C 23.568 40.633,25.640 40.382,28.217 41.552 M329.393 76.012 C 329.019 76.616,328.981 104.522,329.353 105.124 C 329.664 105.628,342.425 105.842,342.915 105.351 C 343.052 105.215,342.477 104.090,341.637 102.851 C 337.185 96.284,335.695 91.360,335.268 81.800 L 335.000 75.800 332.334 75.683 C 330.680 75.610,329.564 75.735,329.393 76.012 M65.941 89.419 C 70.459 90.761,73.401 95.481,72.429 99.827 C 70.005 110.659,54.400 109.205,54.400 98.147 C 54.400 91.917,60.025 87.663,65.941 89.419 M254.954 114.489 C 262.289 116.667,263.217 127.134,256.428 131.125 L 254.600 132.200 202.769 132.200 L 150.937 132.200 148.969 130.986 C 142.346 126.900,143.358 116.527,150.584 114.426 C 152.595 113.841,252.976 113.902,254.954 114.489 M20.907 143.752 C 31.339 146.892,29.322 161.600,18.460 161.600 C 9.495 161.600,6.299 149.921,13.890 144.897 C 16.265 143.325,18.356 142.984,20.907 143.752 M277.640 144.855 C 285.342 147.434,286.089 158.428,278.800 161.928 C 277.522 162.542,274.373 162.600,242.600 162.600 L 207.800 162.600 206.013 161.393 C 199.308 156.866,200.707 147.113,208.397 144.774 C 210.108 144.253,276.075 144.331,277.640 144.855 M185.705 149.386 C 193.282 152.552,192.458 163.861,184.451 166.589 C 181.697 167.527,141.414 167.498,138.495 166.555 C 130.969 164.125,129.653 154.193,136.298 149.979 L 138.157 148.800 161.229 148.800 C 180.589 148.800,184.528 148.894,185.705 149.386 M50.847 182.624 C 51.831 183.133,53.945 185.321,54.043 185.931 C 54.067 186.079,54.292 187.370,54.543 188.800 L 55.000 191.400 57.540 191.713 C 67.509 192.941,67.058 205.361,56.999 206.617 L 54.869 206.884 54.588 209.342 C 53.408 219.655,39.600 218.983,39.600 208.613 C 39.600 207.082,39.479 206.800,38.820 206.800 C 28.301 206.800,26.488 192.991,36.840 191.715 L 39.400 191.400 39.625 189.400 C 40.326 183.180,45.675 179.950,50.847 182.624 M241.203 188.500 C 248.224 192.710,247.073 202.467,239.240 205.137 C 236.972 205.910,148.233 205.788,146.024 205.008 C 139.348 202.653,137.466 194.550,142.474 189.721 C 145.225 187.068,141.915 187.233,192.818 187.216 L 239.035 187.200 241.203 188.500 M269.766 258.460 C 276.951 263.220,274.741 273.589,266.200 275.194 C 262.717 275.849,219.973 275.552,217.889 274.859 C 210.764 272.489,209.824 262.484,216.339 258.352 L 218.157 257.200 243.010 257.200 L 267.863 257.200 269.766 258.460 M354.745 279.487 C 360.562 283.084,360.496 291.358,354.620 294.989 C 348.651 298.678,340.800 294.253,340.800 287.200 C 340.800 280.031,348.625 275.704,354.745 279.487 M372.120 318.647 C 374.957 320.080,376.400 322.157,376.400 324.806 C 376.400 327.366,376.922 328.000,379.027 328.000 C 381.365 328.000,383.409 328.878,384.847 330.499 C 389.067 335.256,385.556 342.800,379.123 342.800 C 376.934 342.800,376.551 343.215,376.445 345.695 C 376.011 355.845,362.624 355.578,361.634 345.400 L 361.400 343.000 359.200 342.768 C 356.291 342.462,355.202 341.963,353.697 340.249 C 349.472 335.438,352.367 328.664,358.916 328.038 L 361.400 327.800 361.644 325.527 C 362.258 319.816,367.552 316.339,372.120 318.647 M45.939 323.610 C 45.343 323.958,45.333 324.185,45.837 325.898 C 48.721 335.688,56.234 342.158,66.392 343.599 C 69.693 344.067,238.361 344.144,239.091 343.678 C 239.445 343.451,239.068 342.599,237.732 340.606 C 234.706 336.096,230.800 327.314,230.800 325.020 C 230.800 323.090,236.370 323.199,138.071 323.212 C 80.033 323.220,46.358 323.365,45.939 323.610 M336.192 359.098 C 342.831 361.437,344.526 369.845,339.287 374.445 C 331.797 381.022,320.774 372.769,325.030 363.772 C 327.112 359.373,331.618 357.486,336.192 359.098 " stroke="none" fill="#ffffff" fill-rule="evenodd"></path></g></svg>